<svg width="41" height="14" viewBox="0 0 41 14" fill="none" xmlns="http://www.w3.org/2000/svg">
<path d="M8.77214 0.312159L5.29434 9.33436L4.955 7.46486C4.10675 5.18896 2.24061 2.83186 0.0351562 1.93776L3.2585 13.561H6.99074L12.5892 0.312159H8.77214ZM11.7409 13.561L13.9464 0.312159H17.509L15.3036 13.561H11.7409ZM32.9471 8.84666C33.2016 8.11516 34.3891 5.10776 34.3891 5.10776C34.3891 5.10776 34.6436 4.37616 34.8981 3.80726L35.1525 4.94516L36.0008 8.76536H32.9471V8.84666ZM37.2732 0.312159H34.5588C33.7105 0.312159 33.0319 0.555959 32.6926 1.45006L27.4335 13.561H31.1658C31.1658 13.561 31.7596 11.9354 31.9292 11.5289C32.3533 11.5289 36.0008 11.5289 36.5097 11.5289C36.5946 12.0166 36.9339 13.4797 36.9339 13.4797H40.242C40.1572 13.561 37.2732 0.312159 37.2732 0.312159ZM28.1969 0.637259C27.5183 0.393459 26.4156 0.0683594 24.9736 0.0683594C21.4958 0.0683594 18.951 1.85646 18.951 4.45746C18.951 6.32696 20.7323 7.46486 22.0895 8.03386C23.4467 8.68406 23.9557 9.09046 23.9557 9.65946C23.9557 10.5536 22.853 10.96 21.8351 10.96C20.393 10.96 19.6296 10.7974 18.5269 10.2285L18.018 10.0659L17.509 12.992C18.3573 13.3984 19.8841 13.6423 21.4958 13.7235C25.2281 13.7235 27.688 11.9354 27.688 9.17176C27.688 7.62746 26.7549 6.48946 24.7191 5.59546C23.4467 4.94516 22.6833 4.53876 22.7681 3.96976C22.7681 3.40086 23.4467 2.83186 24.8039 2.83186C25.737 2.83186 26.6701 2.99446 27.4335 3.31956L27.7728 3.48216C27.688 3.48216 28.1969 0.637259 28.1969 0.637259Z" fill="#1B548E"/>
</svg>
